<svg xmlns="http://www.w3.org/2000/svg" aria-hidden="true" style="position:absolute;width:0;height:0;overflow:hidden">
  <defs>
    <symbol id="icon-chevron-left" viewBox="0 0 32 32">
      <path d="M10.293 16.709a.998.998 0 0 1 0-1.418l10-9.998a1 1 0 0 1 1.415 1.413L12.412 16l9.294 9.294a1 1 0 0 1-1.415 1.413l-9.998-9.998z"/>
    </symbol>
    <symbol id="icon-plus-circle" viewBox="0 0 32 32">
      <path stroke-linecap="round" stroke-linejoin="round" stroke-width="1.333" d="M16 12v8m4-4h-8m16 0c0 6.627-5.373 12-12 12S4 22.627 4 16 9.373 4 16 4s12 5.373 12 12z"/>
    </symbol>
    <symbol id="icon-upload" viewBox="0 0 32 32">
      <path stroke-linecap="round" stroke-linejoin="round" stroke-width="1.333" d="M4 22v3a3 3 0 0 0 3 3h18a3 3 0 0 0 3-3v-3M10 10l6-6m0 0 6 6m-6-6v18"/>
    </symbol>
    <symbol id="icon-plus" viewBox="0 0 32 32">
      <path stroke-linecap="round" stroke-linejoin="round" stroke-width="1.333" d="M16 8v16m8-8H8"/>
    </symbol>
    <symbol id="icon-edit" viewBox="0 0 32 32">
      <path stroke-linecap="round" stroke-linejoin="round" stroke-width="1.333" d="m22.483 5.983 2.249-2.251a2.5 2.5 0 1 1 3.536 3.536L14.109 21.427a5.99 5.99 0 0 1-2.487 1.495l-.043.011L7.999 24l1.067-3.58a6.015 6.015 0 0 1 1.507-2.529L22.482 5.983zm0 0L26 9.5m-2 9.167V25a3 3 0 0 1-3 3H7a3 3 0 0 1-3-3V11a3 3 0 0 1 3-3h6.333"/>
    </symbol>
    <symbol id="icon-delete" viewBox="0 0 32 32">
      <path stroke-linecap="round" stroke-linejoin="round" stroke-width="1.333" d="m19.653 12-.461 12m-6.384 0-.461-12m13.29-4.28c.456.069.909.143 1.363.221m-1.363-.221-1.424 18.511A3.001 3.001 0 0 1 21.222 29H10.777a3 3 0 0 1-2.99-2.759l-.001-.011L6.362 7.719m19.275.001a56.754 56.754 0 0 0-4.412-.515L21 7.191M6.363 7.72c-.789.112-1.252.19-1.714.272L5 7.94m1.363-.22a56.754 56.754 0 0 1 4.412-.515L11 7.191m10 0V5.97c0-1.573-1.213-2.885-2.787-2.935a71.889 71.889 0 0 0-4.539.003l.113-.003C12.214 3.084 11 4.398 11 5.97v1.221m10 0c-1.497-.123-3.24-.193-5-.193s-3.503.07-5.227.207L11 7.19"/>
    </symbol>
    <symbol id="icon-eye-hidden" viewBox="0 0 32 32">
      <path stroke-linecap="round" stroke-linejoin="round" stroke-width="1.333" d="M5.307 10.964a13.9 13.9 0 0 0-2.702 4.937L2.579 16C4.302 21.784 9.659 26 16 26c1.324 0 2.604-.184 3.817-.527M8.304 8.304A13.804 13.804 0 0 1 15.978 6h.023H16c6.341 0 11.697 4.216 13.42 9.997-.985 3.228-3.008 5.891-5.673 7.666l-.051.032M8.304 8.304 4 4m4.304 4.304 4.867 4.867m10.525 10.525L28 28m-4.304-4.304-4.867-4.867a4 4 0 1 0-5.656-5.658l-.001.001m5.657 5.656-5.655-5.655"/>
    </symbol>
    <symbol id="icon-eye" viewBox="0 0 32 32">
      <path stroke-linecap="round" stroke-linejoin="round" stroke-width="1.333" d="M2.715 16.429a1.332 1.332 0 0 1 .003-.861l-.003.009C4.564 10.013 9.814 6 16 6c6.184 0 11.431 4.009 13.284 9.571.093.276.093.575 0 .852C27.436 21.987 22.187 26 16 26c-6.184 0-11.432-4.009-13.285-9.571z"/>
      <path stroke-linecap="round" stroke-linejoin="round" stroke-width="1.333" d="M20 16a4 4 0 0 1-8 0 4 4 0 0 1 8 0z"/>
    </symbol>
    <symbol id="icon-settings" viewBox="0 0 32 32">
      <path stroke-linecap="round" stroke-linejoin="round" stroke-width="1.333" d="M12.792 5.253A1.5 1.5 0 0 1 14.272 4h3.457c.733 0 1.36.531 1.48 1.253l.284 1.708c.084.499.417.915.86 1.16.099.053.196.111.293.169.432.261.96.343 1.433.165l1.623-.608a1.5 1.5 0 0 1 1.823.646l.004.007 1.728 2.996a1.5 1.5 0 0 1-.344 1.906l-.003.002-1.337 1.103c-.391.32-.584.817-.573 1.323v.34c-.011.504.183 1 .573 1.32l1.339 1.104c.565.467.712 1.272.347 1.907l-1.731 2.996a1.5 1.5 0 0 1-1.836.651l.01.003-1.623-.608c-.473-.177-1-.096-1.435.165a5.882 5.882 0 0 1-.25.148l-.043.022c-.44.244-.773.66-.859 1.159l-.284 1.707a1.5 1.5 0 0 1-1.48 1.255h-3.459c-.733 0-1.36-.531-1.48-1.253l-.284-1.708c-.083-.499-.416-.915-.859-1.16a7.996 7.996 0 0 1-.331-.191l.038.021c-.433-.261-.96-.343-1.435-.165l-1.623.608a1.5 1.5 0 0 1-1.822-.646l-.004-.007-1.729-2.996a1.5 1.5 0 0 1 .344-1.906l.003-.002 1.339-1.103c.389-.32.583-.817.573-1.323l-.002-.17.002-.179v.009c.009-.504-.184-1-.573-1.32l-1.339-1.104a1.498 1.498 0 0 1-.343-1.914l-.004.007 1.729-2.996a1.5 1.5 0 0 1 1.837-.651l-.01-.003 1.621.608c.475.177 1.001.096 1.435-.165.096-.059.195-.116.293-.171.443-.244.776-.66.859-1.159l.285-1.708z"/>
      <path stroke-linecap="round" stroke-linejoin="round" stroke-width="1.333" d="M20 16a4 4 0 0 1-8 0 4 4 0 0 1 8 0z"/>
    </symbol>
    <symbol id="icon-logout" viewBox="0 0 32 32">
      <path stroke-linecap="round" stroke-linejoin="round" stroke-width="1.333" d="M21 12V7a3 3 0 0 0-3-3h-8a3 3 0 0 0-3 3v18a3 3 0 0 0 3 3h8a3 3 0 0 0 3-3v-5m4 0 4-4m0 0-4-4m4 4H12"/>
    </symbol>
    <symbol id="icon-user" viewBox="0 0 32 32">
      <path stroke-width="1.333" d="M31.333 16c0 8.468-6.865 15.333-15.333 15.333S.667 24.468.667 16 7.532.667 16 .667 31.333 7.532 31.333 16z"/>
      <path stroke-linecap="round" stroke-linejoin="round" stroke-width="1.333" d="M20 9.436a4.156 4.156 0 0 1-1.171 2.901 3.938 3.938 0 0 1-5.657.001l-.001-.001A4.142 4.142 0 0 1 12 9.446v-.01.001c0-1.088.421-2.132 1.171-2.901A3.94 3.94 0 0 1 16 5.335c1.061 0 2.079.432 2.829 1.201A4.16 4.16 0 0 1 20 9.437zM8 24.88a8.284 8.284 0 0 1 2.39-5.716l-.001.001a7.88 7.88 0 0 1 5.61-2.355H16c2.1 0 4.115.845 5.611 2.356A8.277 8.277 0 0 1 24 24.873v.006c-2.338 1.128-5.084 1.787-7.983 1.787h-.018H16c-2.855 0-5.564-.64-8-1.787z"/>
    </symbol>
    <symbol id="icon-close" viewBox="0 0 32 32">
      <path stroke-linecap="round" stroke-linejoin="round" stroke-width="2" d="M8 24 24 8M8 8l16 16"/>
    </symbol>
    <symbol id="icon-arrow-left" viewBox="0 0 32 32">
      <path d="M9.707 10.293a1 1 0 0 1 0 1.414L6.414 15h21.587a1 1 0 0 1 0 2H6.414l3.293 3.293a.999.999 0 1 1-1.413 1.413l-5-5a1 1 0 0 1 0-1.414l5-5a1 1 0 0 1 1.414 0z"/>
    </symbol>
    <symbol id="icon-minus" viewBox="0 0 32 32">
      <path d="M7 16a1 1 0 0 1 1-1h16a1 1 0 0 1 0 2H8a1 1 0 0 1-1-1z"/>
    </symbol>
    <symbol id="icon-chevron-down" viewBox="0 0 32 32">
      <path d="M16.707 21.707a1 1 0 0 1-1.414 0l-10-10a1 1 0 0 1 1.414-1.413l-.001-.001 9.293 9.293 9.293-9.293a1 1 0 1 1 1.414 1.413l-.001.001-10 10z"/>
    </symbol>
    <symbol id="icon-chevron-right" viewBox="0 0 32 32">
      <path d="M21.707 16.709a.998.998 0 0 0 0-1.418l-10-9.995a1 1 0 0 0-1.415 1.413L19.588 16l-9.294 9.294a1 1 0 0 0 1.415 1.413l9.998-9.998z"/>
    </symbol>
    <symbol id="icon-calendar" viewBox="0 0 32 32">
      <path stroke-linecap="round" stroke-linejoin="round" stroke-width="1.6" d="M9 4v3m14-3v3M4 25V10a3.004 3.004 0 0 1 3-3h18a3.004 3.004 0 0 1 3 3v15M4 25a3.004 3.004 0 0 0 3 3h18a3.004 3.004 0 0 0 3-3M4 25V15a3.004 3.004 0 0 1 3-3h18a3.004 3.004 0 0 1 3 3v10m-12-8h.011v.011H16V17zm0 3h.011v.011H16V20zm0 3h.011v.011H16V23zm-3-3h.011v.011H13V20zm0 3h.011v.011H13V23zm-3-3h.011v.011H10V20zm0 3h.011v.011H10V23zm9-6h.011v.011H19V17zm0 3h.011v.011H19V20zm0 3h.011v.011H19V23zm3-6h.011v.011H22V17zm0 3h.011v.011H22V20z"/>
    </symbol>
    <symbol id="icon-presentation-chart" viewBox="0 0 32 32">
      <path stroke-linecap="round" stroke-linejoin="round" stroke-width="1.6" d="M5 4v15a3.004 3.004 0 0 0 3 3h3M5 4H3m2 0h22M11 22h10m-10 0-1.333 4M27 4h2m-2 0v15a3.004 3.004 0 0 1-3 3h-3m0 0 1.333 4M9.667 26h12.667M9.667 26 9 28m13.333-2L23 28M12 15v2m4-5v5m4-8v8"/>
    </symbol>
    <symbol id="icon-mainpage-settings" viewBox="0 0 32 32">
      <path stroke-linecap="round" stroke-linejoin="round" stroke-width="1.6" d="M15.227 20.227 23 28a3.535 3.535 0 0 0 5.996-2.513 3.535 3.535 0 0 0-.995-2.488l-7.836-7.836m-4.938 5.064 3.328-4.04c.423-.512.987-.835 1.611-1.021.733-.219 1.551-.251 2.324-.187a6.006 6.006 0 0 0 6.486-5.404 6.013 6.013 0 0 0-.504-3.045l-4.368 4.369a4.01 4.01 0 0 1-3-3l4.368-4.368a6.008 6.008 0 0 0-7.912 2.943 6.01 6.01 0 0 0-.536 3.039c.121 1.435-.095 3.019-1.205 3.933l-.136.113m-.456 6.668L9.02 27.764a3.403 3.403 0 0 1-2.46 1.239A3.4 3.4 0 0 1 3 25.442a3.39 3.39 0 0 1 1.239-2.46l9.116-7.507-5.476-5.476H6l-3-5 2-2 5 3v1.879l5.68 5.68-2.327 1.916M24.5 24.5 21 21M6.489 25.5H6.5v.011h-.011V25.5z"/>
    </symbol>
    <symbol id="icon-water-glass" viewBox="0 0 32 32">
      <path d="m5.565 2.783 1.901 26.363v.072h16.367l1.901-26.353v-.082H5.565zM23.16 28.479H8.143L6.717 8.732h.784L8.79 26.135c.008.092.049.177.115.24s.153.098.244.099h.03a.363.363 0 0 0 .247-.124.362.362 0 0 0 .087-.265L8.224 8.734h16.362L23.16 28.481zm1.477-20.485H8.169l-.283-3.847c-.009-.094-.052-.181-.122-.244s-.16-.097-.252-.095c-.095.009-.183.055-.245.129s-.094.169-.088.266l.283 3.795h-.794l-.324-4.483h18.617l-.324 4.478z"/>
      <path d="M11.359 12.384c.236 0 .467-.071.663-.204s.349-.322.439-.543a1.229 1.229 0 0 0-.259-1.319 1.176 1.176 0 0 0-1.3-.262 1.207 1.207 0 0 0-.737 1.119c0 .321.126.629.35.856s.527.354.844.354zm0-1.687a.467.467 0 0 1 .434.294.482.482 0 0 1-.102.52.461.461 0 0 1-.724-.072.481.481 0 0 1 .059-.602.469.469 0 0 1 .332-.14zM11.354 16.318c.003.239.076.472.209.669s.321.35.539.439a1.178 1.178 0 0 0 1.296-.274c.165-.17.277-.387.321-.621s.019-.477-.072-.698c-.092-.22-.245-.408-.442-.54a1.18 1.18 0 0 0-1.509.162 1.225 1.225 0 0 0-.342.864zm1.659 0a.47.47 0 0 1-.562.468.48.48 0 0 1 .091-.945c.125 0 .244.05.332.14s.138.211.138.337zM19.833 16.349c.236 0 .467-.071.663-.204s.349-.322.439-.543a1.229 1.229 0 0 0-.259-1.319 1.176 1.176 0 0 0-1.3-.262 1.207 1.207 0 0 0-.737 1.119c0 .321.126.629.349.856s.527.354.844.354zm0-1.683a.466.466 0 0 1 .435.296.477.477 0 0 1-.346.649.462.462 0 0 1-.482-.207.482.482 0 0 1 .063-.6.47.47 0 0 1 .331-.138zM15.677 14.066c.236 0 .467-.071.663-.204s.349-.322.439-.543A1.229 1.229 0 0 0 16.521 12a1.187 1.187 0 0 0-1.3-.262c-.218.092-.404.247-.535.446a1.223 1.223 0 0 0 .149 1.528c.224.227.527.355.844.355zm0-1.687a.467.467 0 0 1 .434.294.482.482 0 0 1-.102.52.47.47 0 0 1-.513.104.481.481 0 0 1-.29-.441.488.488 0 0 1 .128-.354.461.461 0 0 1 .342-.149v.026zM13.402 20.929c.005.197.067.387.178.549a.98.98 0 0 0 1.776-.387 1.001 1.001 0 0 0-.423-1.019.975.975 0 0 0-.545-.167c-.264.007-.514.118-.699.309s-.287.449-.287.716zm.986-.267a.262.262 0 0 1 .243.165.27.27 0 0 1-.057.291.264.264 0 0 1-.449-.188c0-.071.028-.139.077-.189s.116-.078.186-.078zM18.17 19.816a1.008 1.008 0 0 0 .962-.614 1.042 1.042 0 0 0-.208-1.133c-.142-.146-.325-.245-.524-.285s-.405-.018-.591.063c-.186.08-.345.216-.454.389a1.042 1.042 0 0 0 .131 1.277c.181.186.426.295.684.304zm0-1.267c.07 0 .137.028.186.078a.27.27 0 0 1 0 .378c-.049.05-.116.078-.186.078s-.138-.028-.188-.078-.079-.118-.08-.189a.282.282 0 0 1 .079-.19.253.253 0 0 1 .189-.077zM20.253 11.538a1.017 1.017 0 0 0 .934-.633 1.037 1.037 0 0 0-.219-1.118.999.999 0 0 0-1.556.155 1.038 1.038 0 0 0 .126 1.295c.189.192.447.3.715.3zm0-1.267c.039-.011.08-.013.12-.006s.078.024.11.049a.27.27 0 0 1 .077.332.282.282 0 0 1-.077.094.254.254 0 0 1-.23.043c-.039.011-.08.013-.12.006s-.078-.024-.11-.049a.27.27 0 0 1-.077-.332.282.282 0 0 1 .077-.094.254.254 0 0 1 .23-.043zM10.368 27.191a.372.372 0 0 0-.032.657.371.371 0 0 0 .351.019 10.9 10.9 0 0 1 4.99-1.231c1.837.027 3.648.441 5.319 1.216a.357.357 0 0 0 .413-.054.376.376 0 0 0-.1-.618 13.78 13.78 0 0 0-5.633-1.282 11.61 11.61 0 0 0-5.309 1.292z"/>
    </symbol>
  </defs>
</svg>
